<mxfile host="Electron" modified="2024-10-31T02:47:09.721Z" agent="Mozilla/5.0 (Windows NT 10.0; Win64; x64) AppleWebKit/537.36 (KHTML, like Gecko) draw.io/21.1.2 Chrome/106.0.5249.199 Electron/21.4.3 Safari/537.36" version="21.1.2" etag="En3wCZxTylKa4FnRckqe" type="device">
  <diagram id="X1pHVg89w_2UZ-GP6gdg" name="Page-1">
    <mxGraphModel dx="5569" dy="2831" grid="1" gridSize="10" guides="1" tooltips="1" connect="1" arrows="1" fold="1" page="1" pageScale="1" pageWidth="850" pageHeight="1100" math="0" shadow="0">
      <root>
        <mxCell id="0" />
        <mxCell id="1" parent="0" />
        <mxCell id="Iu-jhI92YKq9Ds77I20t-1" value="&lt;div style=&quot;&quot;&gt;&lt;span style=&quot;background-color: initial;&quot;&gt;Inventory Management System&lt;/span&gt;&lt;/div&gt;" style="swimlane;whiteSpace=wrap;html=1;startSize=23;align=center;" vertex="1" parent="1">
          <mxGeometry x="140" y="60" width="1450" height="900" as="geometry">
            <mxRectangle x="-30" y="80" width="70" height="30" as="alternateBounds" />
          </mxGeometry>
        </mxCell>
        <mxCell id="Iu-jhI92YKq9Ds77I20t-2" value="" style="verticalLabelPosition=bottom;verticalAlign=top;html=1;shape=mxgraph.basic.patternFillRect;fillStyle=diagGrid;step=5;fillStrokeWidth=0.2;fillStrokeColor=#dddddd;movable=1;resizable=1;rotatable=1;deletable=1;editable=1;locked=0;connectable=1;" vertex="1" parent="Iu-jhI92YKq9Ds77I20t-1">
          <mxGeometry x="690" y="90" width="760" height="800" as="geometry" />
        </mxCell>
        <mxCell id="Iu-jhI92YKq9Ds77I20t-3" value="&lt;h1&gt;COMPANY NAME/LOGO&lt;/h1&gt;" style="html=1;whiteSpace=wrap;container=1;recursiveResize=0;collapsible=0;fillColor=#CCCCCC;" vertex="1" parent="Iu-jhI92YKq9Ds77I20t-1">
          <mxGeometry y="20" width="1450" height="70" as="geometry" />
        </mxCell>
        <mxCell id="Iu-jhI92YKq9Ds77I20t-5" value="" style="whiteSpace=wrap;html=1;aspect=fixed;" vertex="1" parent="Iu-jhI92YKq9Ds77I20t-1">
          <mxGeometry x="1430" width="20" height="20" as="geometry" />
        </mxCell>
        <mxCell id="Iu-jhI92YKq9Ds77I20t-6" value="" style="whiteSpace=wrap;html=1;aspect=fixed;" vertex="1" parent="Iu-jhI92YKq9Ds77I20t-1">
          <mxGeometry x="1410" width="20" height="20" as="geometry" />
        </mxCell>
        <mxCell id="Iu-jhI92YKq9Ds77I20t-7" value="" style="whiteSpace=wrap;html=1;aspect=fixed;" vertex="1" parent="Iu-jhI92YKq9Ds77I20t-1">
          <mxGeometry x="1390" width="20" height="20" as="geometry" />
        </mxCell>
        <mxCell id="Iu-jhI92YKq9Ds77I20t-8" value="" style="line;strokeWidth=4;html=1;perimeter=backbonePerimeter;points=[];outlineConnect=0;" vertex="1" parent="Iu-jhI92YKq9Ds77I20t-1">
          <mxGeometry x="1395" y="5" width="10" height="10" as="geometry" />
        </mxCell>
        <mxCell id="Iu-jhI92YKq9Ds77I20t-9" value="" style="shape=ext;double=1;whiteSpace=wrap;html=1;aspect=fixed;" vertex="1" parent="Iu-jhI92YKq9Ds77I20t-1">
          <mxGeometry x="1415" y="5" width="10" height="10" as="geometry" />
        </mxCell>
        <mxCell id="Iu-jhI92YKq9Ds77I20t-10" value="" style="verticalLabelPosition=bottom;verticalAlign=top;html=1;shape=mxgraph.basic.x" vertex="1" parent="Iu-jhI92YKq9Ds77I20t-1">
          <mxGeometry x="1435" y="5" width="10" height="10" as="geometry" />
        </mxCell>
        <mxCell id="Iu-jhI92YKq9Ds77I20t-11" value="" style="verticalLabelPosition=bottom;verticalAlign=top;html=1;shape=mxgraph.basic.patternFillRect;fillStyle=diagRev;step=5;fillStrokeWidth=0.2;fillStrokeColor=#dddddd;" vertex="1" parent="Iu-jhI92YKq9Ds77I20t-1">
          <mxGeometry x="895" y="510" width="120" height="20" as="geometry" />
        </mxCell>
        <mxCell id="Iu-jhI92YKq9Ds77I20t-12" value="" style="line;strokeWidth=2;html=1;" vertex="1" parent="Iu-jhI92YKq9Ds77I20t-1">
          <mxGeometry x="895" y="460" width="290" height="10" as="geometry" />
        </mxCell>
        <mxCell id="Iu-jhI92YKq9Ds77I20t-13" value="" style="line;strokeWidth=2;html=1;" vertex="1" parent="Iu-jhI92YKq9Ds77I20t-1">
          <mxGeometry x="890" y="370" width="290" height="10" as="geometry" />
        </mxCell>
        <mxCell id="Iu-jhI92YKq9Ds77I20t-14" value="" style="verticalLabelPosition=bottom;verticalAlign=top;html=1;shape=mxgraph.basic.patternFillRect;fillStyle=diagRev;step=5;fillStrokeWidth=0.2;fillStrokeColor=#dddddd;" vertex="1" parent="Iu-jhI92YKq9Ds77I20t-1">
          <mxGeometry x="1065" y="510" width="120" height="20" as="geometry" />
        </mxCell>
        <mxCell id="Iu-jhI92YKq9Ds77I20t-15" value="Help signing in?" style="text;html=1;strokeColor=none;fillColor=none;align=center;verticalAlign=middle;whiteSpace=wrap;rounded=0;" vertex="1" parent="Iu-jhI92YKq9Ds77I20t-1">
          <mxGeometry x="985" y="570" width="110" height="30" as="geometry" />
        </mxCell>
        <mxCell id="Iu-jhI92YKq9Ds77I20t-16" value="&lt;font style=&quot;font-size: 18px;&quot;&gt;Username&lt;/font&gt;" style="text;html=1;strokeColor=none;fillColor=none;align=center;verticalAlign=middle;whiteSpace=wrap;rounded=0;" vertex="1" parent="Iu-jhI92YKq9Ds77I20t-1">
          <mxGeometry x="1010" y="350" width="60" height="30" as="geometry" />
        </mxCell>
        <mxCell id="Iu-jhI92YKq9Ds77I20t-17" value="&lt;font style=&quot;font-size: 18px;&quot;&gt;Password&lt;/font&gt;" style="text;html=1;strokeColor=none;fillColor=none;align=center;verticalAlign=middle;whiteSpace=wrap;rounded=0;" vertex="1" parent="Iu-jhI92YKq9Ds77I20t-1">
          <mxGeometry x="1015" y="440" width="60" height="30" as="geometry" />
        </mxCell>
        <mxCell id="Iu-jhI92YKq9Ds77I20t-4" value="&lt;blockquote style=&quot;margin: 0 0 0 40px; border: none; padding: 0px;&quot;&gt;&lt;blockquote style=&quot;margin: 0 0 0 40px; border: none; padding: 0px;&quot;&gt;&lt;blockquote style=&quot;margin: 0 0 0 40px; border: none; padding: 0px;&quot;&gt;&lt;blockquote style=&quot;margin: 0 0 0 40px; border: none; padding: 0px;&quot;&gt;&lt;h1 style=&quot;margin: 0 0 0 40px; border: none; padding: 0px;&quot;&gt;&lt;font style=&quot;font-size: 24px;&quot;&gt;Welcome&lt;/font&gt;&lt;/h1&gt;&lt;/blockquote&gt;&lt;/blockquote&gt;&lt;/blockquote&gt;&lt;/blockquote&gt;" style="text;html=1;strokeColor=none;fillColor=none;align=center;verticalAlign=middle;whiteSpace=wrap;rounded=0;" vertex="1" parent="Iu-jhI92YKq9Ds77I20t-1">
          <mxGeometry x="795" y="150" width="300" height="30" as="geometry" />
        </mxCell>
        <mxCell id="Iu-jhI92YKq9Ds77I20t-18" value="" style="verticalLabelPosition=bottom;verticalAlign=top;html=1;shape=mxgraph.basic.patternFillRect;fillStyle=diagGrid;step=5;fillStrokeWidth=0.2;fillStrokeColor=#dddddd;movable=1;resizable=1;rotatable=1;deletable=1;editable=1;locked=0;connectable=1;fillColor=#333333;" vertex="1" parent="Iu-jhI92YKq9Ds77I20t-1">
          <mxGeometry y="90" width="690" height="800" as="geometry" />
        </mxCell>
        <mxCell id="Iu-jhI92YKq9Ds77I20t-37" value="" style="verticalLabelPosition=bottom;verticalAlign=top;html=1;shape=mxgraph.basic.patternFillRect;fillStyle=diagGrid;step=5;fillStrokeWidth=0.2;fillStrokeColor=#dddddd;movable=1;resizable=1;rotatable=1;deletable=1;editable=1;locked=0;connectable=1;fillColor=#333333;" vertex="1" parent="Iu-jhI92YKq9Ds77I20t-1">
          <mxGeometry x="1380" y="90" width="70" height="810" as="geometry" />
        </mxCell>
        <mxCell id="Iu-jhI92YKq9Ds77I20t-280" value="&lt;font style=&quot;font-size: 18px;&quot;&gt;Sign In&lt;/font&gt;" style="text;html=1;strokeColor=none;fillColor=none;align=center;verticalAlign=middle;whiteSpace=wrap;rounded=0;" vertex="1" parent="Iu-jhI92YKq9Ds77I20t-1">
          <mxGeometry x="1095" y="505" width="60" height="30" as="geometry" />
        </mxCell>
        <mxCell id="Iu-jhI92YKq9Ds77I20t-281" value="&lt;font style=&quot;font-size: 18px;&quot;&gt;Register&lt;/font&gt;" style="text;html=1;strokeColor=none;fillColor=none;align=center;verticalAlign=middle;whiteSpace=wrap;rounded=0;" vertex="1" parent="Iu-jhI92YKq9Ds77I20t-1">
          <mxGeometry x="925" y="505" width="60" height="30" as="geometry" />
        </mxCell>
        <mxCell id="Iu-jhI92YKq9Ds77I20t-51" value="" style="verticalLabelPosition=bottom;verticalAlign=top;html=1;shape=mxgraph.basic.patternFillRect;fillStyle=diagGrid;step=5;fillStrokeWidth=0.2;fillStrokeColor=#dddddd;" vertex="1" parent="1">
          <mxGeometry x="450" y="1410" width="860" height="550" as="geometry" />
        </mxCell>
        <mxCell id="Iu-jhI92YKq9Ds77I20t-62" value="Recent Activity" style="swimlane;fontStyle=1;align=center;verticalAlign=top;childLayout=stackLayout;horizontal=1;startSize=26;horizontalStack=0;resizeParent=1;resizeParentMax=0;resizeLast=0;collapsible=1;marginBottom=0;whiteSpace=wrap;html=1;" vertex="1" parent="1">
          <mxGeometry x="710" y="1640" width="550" height="264" as="geometry" />
        </mxCell>
        <mxCell id="Iu-jhI92YKq9Ds77I20t-63" value="" style="line;strokeWidth=1;fillColor=none;align=left;verticalAlign=middle;spacingTop=-1;spacingLeft=3;spacingRight=3;rotatable=0;labelPosition=right;points=[];portConstraint=eastwest;strokeColor=inherit;" vertex="1" parent="Iu-jhI92YKq9Ds77I20t-62">
          <mxGeometry y="26" width="550" height="4" as="geometry" />
        </mxCell>
        <mxCell id="Iu-jhI92YKq9Ds77I20t-64" value="Item ID&lt;span style=&quot;white-space: pre;&quot;&gt;	&lt;/span&gt;&lt;span style=&quot;white-space: pre;&quot;&gt;	&lt;/span&gt;Order ID&lt;span style=&quot;white-space: pre;&quot;&gt;	&lt;/span&gt;&lt;span style=&quot;white-space: pre;&quot;&gt;	&lt;/span&gt;&lt;span style=&quot;white-space: pre;&quot;&gt;	&lt;/span&gt;Item Name&amp;nbsp;&lt;span style=&quot;white-space: pre;&quot;&gt;	&lt;/span&gt;&lt;span style=&quot;white-space: pre;&quot;&gt;	&lt;/span&gt;&lt;span style=&quot;white-space: pre;&quot;&gt;	&lt;/span&gt;&lt;span style=&quot;white-space: pre;&quot;&gt;	&lt;/span&gt;Order Status&lt;span style=&quot;white-space: pre;&quot;&gt;	&lt;/span&gt;&lt;span style=&quot;white-space: pre;&quot;&gt;	&lt;/span&gt;Total Quantity" style="text;strokeColor=none;fillColor=#FFFF66;align=left;verticalAlign=top;spacingLeft=4;spacingRight=4;overflow=hidden;rotatable=0;points=[[0,0.5],[1,0.5]];portConstraint=eastwest;whiteSpace=wrap;html=1;" vertex="1" parent="Iu-jhI92YKq9Ds77I20t-62">
          <mxGeometry y="30" width="550" height="26" as="geometry" />
        </mxCell>
        <mxCell id="Iu-jhI92YKq9Ds77I20t-65" value="011214&lt;span style=&quot;white-space: pre;&quot;&gt;	&lt;/span&gt;&amp;nbsp; &amp;nbsp; &amp;nbsp; #5484SV8&lt;span style=&quot;white-space: pre;&quot;&gt;	&lt;/span&gt;&lt;span style=&quot;white-space: pre;&quot;&gt;	&lt;/span&gt;&amp;nbsp; &amp;nbsp; SAMPLE ITEM&lt;span style=&quot;white-space: pre;&quot;&gt;	&lt;/span&gt;&lt;span style=&quot;white-space: pre;&quot;&gt;	&lt;/span&gt;&lt;span style=&quot;white-space: pre;&quot;&gt;	&lt;/span&gt;&lt;span style=&quot;white-space: pre;&quot;&gt;	&lt;/span&gt;&lt;span style=&quot;white-space: pre;&quot;&gt;	&lt;/span&gt;IT&lt;span style=&quot;white-space: pre;&quot;&gt;	&lt;/span&gt;&lt;span style=&quot;white-space: pre;&quot;&gt;	&lt;/span&gt;&lt;span style=&quot;white-space: pre;&quot;&gt;	&lt;/span&gt;&lt;span style=&quot;white-space: pre;&quot;&gt;	&lt;/span&gt;358" style="text;strokeColor=none;fillColor=none;align=left;verticalAlign=top;spacingLeft=4;spacingRight=4;overflow=hidden;rotatable=0;points=[[0,0.5],[1,0.5]];portConstraint=eastwest;whiteSpace=wrap;html=1;" vertex="1" parent="Iu-jhI92YKq9Ds77I20t-62">
          <mxGeometry y="56" width="550" height="26" as="geometry" />
        </mxCell>
        <mxCell id="Iu-jhI92YKq9Ds77I20t-95" value="011214&lt;span style=&quot;white-space: pre;&quot;&gt;	&lt;/span&gt;&amp;nbsp; &amp;nbsp; &amp;nbsp; #5484SV8&lt;span style=&quot;white-space: pre;&quot;&gt;	&lt;/span&gt;&lt;span style=&quot;white-space: pre;&quot;&gt;	&lt;/span&gt;&amp;nbsp; &amp;nbsp; SAMPLE ITEM&lt;span style=&quot;white-space: pre;&quot;&gt;	&lt;/span&gt;&lt;span style=&quot;white-space: pre;&quot;&gt;	&lt;/span&gt;&lt;span style=&quot;white-space: pre;&quot;&gt;	&lt;/span&gt;&lt;span style=&quot;white-space: pre;&quot;&gt;	&lt;/span&gt;&lt;span style=&quot;white-space: pre;&quot;&gt;	&lt;/span&gt;IT&lt;span style=&quot;white-space: pre;&quot;&gt;	&lt;/span&gt;&lt;span style=&quot;white-space: pre;&quot;&gt;	&lt;/span&gt;&lt;span style=&quot;white-space: pre;&quot;&gt;	&lt;/span&gt;&lt;span style=&quot;white-space: pre;&quot;&gt;	&lt;/span&gt;358" style="text;strokeColor=none;fillColor=none;align=left;verticalAlign=top;spacingLeft=4;spacingRight=4;overflow=hidden;rotatable=0;points=[[0,0.5],[1,0.5]];portConstraint=eastwest;whiteSpace=wrap;html=1;" vertex="1" parent="Iu-jhI92YKq9Ds77I20t-62">
          <mxGeometry y="82" width="550" height="26" as="geometry" />
        </mxCell>
        <mxCell id="Iu-jhI92YKq9Ds77I20t-96" value="012235&amp;nbsp; &amp;nbsp; &amp;nbsp; &amp;nbsp; &amp;nbsp; #3185LE6&lt;span style=&quot;white-space: pre;&quot;&gt;	&lt;/span&gt;&lt;span style=&quot;white-space: pre;&quot;&gt;	&lt;/span&gt;&amp;nbsp; &amp;nbsp; SAMPLE ITEM 3&lt;span style=&quot;white-space: pre;&quot;&gt;	&lt;/span&gt;&lt;span style=&quot;white-space: pre;&quot;&gt;	&lt;/span&gt;&lt;span style=&quot;white-space: pre;&quot;&gt;	&lt;/span&gt;&lt;span style=&quot;white-space: pre;&quot;&gt;	&lt;/span&gt;&amp;nbsp; &amp;nbsp; Shipped&lt;span style=&quot;white-space: pre;&quot;&gt;	&lt;/span&gt;&lt;span style=&quot;white-space: pre;&quot;&gt;	&lt;span style=&quot;white-space: pre;&quot;&gt;	&lt;/span&gt;1&lt;/span&gt;28" style="text;strokeColor=none;fillColor=#CCFFE6;align=left;verticalAlign=top;spacingLeft=4;spacingRight=4;overflow=hidden;rotatable=0;points=[[0,0.5],[1,0.5]];portConstraint=eastwest;whiteSpace=wrap;html=1;" vertex="1" parent="Iu-jhI92YKq9Ds77I20t-62">
          <mxGeometry y="108" width="550" height="26" as="geometry" />
        </mxCell>
        <mxCell id="Iu-jhI92YKq9Ds77I20t-97" value="011214&lt;span style=&quot;white-space: pre;&quot;&gt;	&lt;/span&gt;&amp;nbsp; &amp;nbsp; &amp;nbsp; #5484SV8&lt;span style=&quot;white-space: pre;&quot;&gt;	&lt;/span&gt;&lt;span style=&quot;white-space: pre;&quot;&gt;	&lt;/span&gt;&amp;nbsp; &amp;nbsp; SAMPLE ITEM&lt;span style=&quot;white-space: pre;&quot;&gt;	&lt;/span&gt;&lt;span style=&quot;white-space: pre;&quot;&gt;	&lt;/span&gt;&lt;span style=&quot;white-space: pre;&quot;&gt;	&lt;/span&gt;&lt;span style=&quot;white-space: pre;&quot;&gt;	&lt;/span&gt;&lt;span style=&quot;white-space: pre;&quot;&gt;	&lt;/span&gt;IT&lt;span style=&quot;white-space: pre;&quot;&gt;	&lt;/span&gt;&lt;span style=&quot;white-space: pre;&quot;&gt;	&lt;/span&gt;&lt;span style=&quot;white-space: pre;&quot;&gt;	&lt;/span&gt;&lt;span style=&quot;white-space: pre;&quot;&gt;	&lt;/span&gt;358" style="text;strokeColor=none;fillColor=none;align=left;verticalAlign=top;spacingLeft=4;spacingRight=4;overflow=hidden;rotatable=0;points=[[0,0.5],[1,0.5]];portConstraint=eastwest;whiteSpace=wrap;html=1;" vertex="1" parent="Iu-jhI92YKq9Ds77I20t-62">
          <mxGeometry y="134" width="550" height="26" as="geometry" />
        </mxCell>
        <mxCell id="Iu-jhI92YKq9Ds77I20t-98" value="011214&lt;span style=&quot;white-space: pre;&quot;&gt;	&lt;/span&gt;&amp;nbsp; &amp;nbsp; &amp;nbsp; #5484SV8&lt;span style=&quot;white-space: pre;&quot;&gt;	&lt;/span&gt;&lt;span style=&quot;white-space: pre;&quot;&gt;	&lt;/span&gt;&amp;nbsp; &amp;nbsp; SAMPLE ITEM&lt;span style=&quot;white-space: pre;&quot;&gt;	&lt;/span&gt;&lt;span style=&quot;white-space: pre;&quot;&gt;	&lt;/span&gt;&lt;span style=&quot;white-space: pre;&quot;&gt;	&lt;/span&gt;&lt;span style=&quot;white-space: pre;&quot;&gt;	&lt;/span&gt;&lt;span style=&quot;white-space: pre;&quot;&gt;	&lt;/span&gt;IT&lt;span style=&quot;white-space: pre;&quot;&gt;	&lt;/span&gt;&lt;span style=&quot;white-space: pre;&quot;&gt;	&lt;/span&gt;&lt;span style=&quot;white-space: pre;&quot;&gt;	&lt;/span&gt;&lt;span style=&quot;white-space: pre;&quot;&gt;	&lt;/span&gt;358" style="text;strokeColor=none;fillColor=none;align=left;verticalAlign=top;spacingLeft=4;spacingRight=4;overflow=hidden;rotatable=0;points=[[0,0.5],[1,0.5]];portConstraint=eastwest;whiteSpace=wrap;html=1;" vertex="1" parent="Iu-jhI92YKq9Ds77I20t-62">
          <mxGeometry y="160" width="550" height="26" as="geometry" />
        </mxCell>
        <mxCell id="Iu-jhI92YKq9Ds77I20t-99" value="011214&lt;span style=&quot;white-space: pre;&quot;&gt;	&lt;/span&gt;&amp;nbsp; &amp;nbsp; &amp;nbsp; #5484SV8&lt;span style=&quot;white-space: pre;&quot;&gt;	&lt;/span&gt;&lt;span style=&quot;white-space: pre;&quot;&gt;	&lt;/span&gt;&amp;nbsp; &amp;nbsp; SAMPLE ITEM&lt;span style=&quot;white-space: pre;&quot;&gt;	&lt;/span&gt;&lt;span style=&quot;white-space: pre;&quot;&gt;	&lt;/span&gt;&lt;span style=&quot;white-space: pre;&quot;&gt;	&lt;/span&gt;&lt;span style=&quot;white-space: pre;&quot;&gt;	&lt;/span&gt;&lt;span style=&quot;white-space: pre;&quot;&gt;	&lt;/span&gt;IT&lt;span style=&quot;white-space: pre;&quot;&gt;	&lt;/span&gt;&lt;span style=&quot;white-space: pre;&quot;&gt;	&lt;/span&gt;&lt;span style=&quot;white-space: pre;&quot;&gt;	&lt;/span&gt;&lt;span style=&quot;white-space: pre;&quot;&gt;	&lt;/span&gt;358" style="text;strokeColor=none;fillColor=none;align=left;verticalAlign=top;spacingLeft=4;spacingRight=4;overflow=hidden;rotatable=0;points=[[0,0.5],[1,0.5]];portConstraint=eastwest;whiteSpace=wrap;html=1;" vertex="1" parent="Iu-jhI92YKq9Ds77I20t-62">
          <mxGeometry y="186" width="550" height="26" as="geometry" />
        </mxCell>
        <mxCell id="Iu-jhI92YKq9Ds77I20t-100" value="011214&lt;span style=&quot;white-space: pre;&quot;&gt;	&lt;/span&gt;&amp;nbsp; &amp;nbsp; &amp;nbsp; #5484SV8&lt;span style=&quot;white-space: pre;&quot;&gt;	&lt;/span&gt;&lt;span style=&quot;white-space: pre;&quot;&gt;	&lt;/span&gt;&amp;nbsp; &amp;nbsp; SAMPLE ITEM&lt;span style=&quot;white-space: pre;&quot;&gt;	&lt;/span&gt;&lt;span style=&quot;white-space: pre;&quot;&gt;	&lt;/span&gt;&lt;span style=&quot;white-space: pre;&quot;&gt;	&lt;/span&gt;&lt;span style=&quot;white-space: pre;&quot;&gt;	&lt;/span&gt;&lt;span style=&quot;white-space: pre;&quot;&gt;	&lt;/span&gt;IT&lt;span style=&quot;white-space: pre;&quot;&gt;	&lt;/span&gt;&lt;span style=&quot;white-space: pre;&quot;&gt;	&lt;/span&gt;&lt;span style=&quot;white-space: pre;&quot;&gt;	&lt;/span&gt;&lt;span style=&quot;white-space: pre;&quot;&gt;	&lt;/span&gt;358" style="text;strokeColor=none;fillColor=none;align=left;verticalAlign=top;spacingLeft=4;spacingRight=4;overflow=hidden;rotatable=0;points=[[0,0.5],[1,0.5]];portConstraint=eastwest;whiteSpace=wrap;html=1;" vertex="1" parent="Iu-jhI92YKq9Ds77I20t-62">
          <mxGeometry y="212" width="550" height="26" as="geometry" />
        </mxCell>
        <mxCell id="Iu-jhI92YKq9Ds77I20t-101" value="011214&lt;span style=&quot;white-space: pre;&quot;&gt;	&lt;/span&gt;&amp;nbsp; &amp;nbsp; &amp;nbsp; #5484SV8&lt;span style=&quot;white-space: pre;&quot;&gt;	&lt;/span&gt;&lt;span style=&quot;white-space: pre;&quot;&gt;	&lt;/span&gt;&amp;nbsp; &amp;nbsp; SAMPLE ITEM&lt;span style=&quot;white-space: pre;&quot;&gt;	&lt;/span&gt;&lt;span style=&quot;white-space: pre;&quot;&gt;	&lt;/span&gt;&lt;span style=&quot;white-space: pre;&quot;&gt;	&lt;/span&gt;&lt;span style=&quot;white-space: pre;&quot;&gt;	&lt;/span&gt;&lt;span style=&quot;white-space: pre;&quot;&gt;	&lt;/span&gt;IT&lt;span style=&quot;white-space: pre;&quot;&gt;	&lt;/span&gt;&lt;span style=&quot;white-space: pre;&quot;&gt;	&lt;/span&gt;&lt;span style=&quot;white-space: pre;&quot;&gt;	&lt;/span&gt;&lt;span style=&quot;white-space: pre;&quot;&gt;	&lt;/span&gt;358" style="text;strokeColor=none;fillColor=none;align=left;verticalAlign=top;spacingLeft=4;spacingRight=4;overflow=hidden;rotatable=0;points=[[0,0.5],[1,0.5]];portConstraint=eastwest;whiteSpace=wrap;html=1;" vertex="1" parent="Iu-jhI92YKq9Ds77I20t-62">
          <mxGeometry y="238" width="550" height="26" as="geometry" />
        </mxCell>
        <mxCell id="Iu-jhI92YKq9Ds77I20t-69" style="edgeStyle=orthogonalEdgeStyle;rounded=0;orthogonalLoop=1;jettySize=auto;html=1;exitX=0.5;exitY=1;exitDx=0;exitDy=0;" edge="1" parent="1">
          <mxGeometry relative="1" as="geometry">
            <mxPoint x="699.9999999999995" y="1470" as="sourcePoint" />
            <mxPoint x="700.0000000000005" y="1470" as="targetPoint" />
          </mxGeometry>
        </mxCell>
        <mxCell id="Iu-jhI92YKq9Ds77I20t-84" value="&lt;h1&gt;Sales Dashboard&lt;/h1&gt;" style="rounded=1;whiteSpace=wrap;html=1;" vertex="1" parent="1">
          <mxGeometry x="620" y="1580" width="680" height="40" as="geometry" />
        </mxCell>
        <mxCell id="Iu-jhI92YKq9Ds77I20t-78" value="" style="verticalLabelPosition=bottom;verticalAlign=top;html=1;shape=mxgraph.basic.patternFillRect;fillStyle=diagGrid;step=5;fillStrokeWidth=0.2;fillStrokeColor=#dddddd;movable=1;resizable=1;rotatable=1;deletable=1;editable=1;locked=0;connectable=1;fillColor=#333333;" vertex="1" parent="1">
          <mxGeometry x="450" y="1410" width="180" height="550" as="geometry" />
        </mxCell>
        <mxCell id="Iu-jhI92YKq9Ds77I20t-85" value="&lt;b&gt;Order Quantity&lt;/b&gt;" style="rounded=1;whiteSpace=wrap;html=1;" vertex="1" parent="1">
          <mxGeometry x="670" y="1440" width="180" height="100" as="geometry" />
        </mxCell>
        <mxCell id="Iu-jhI92YKq9Ds77I20t-86" value="&lt;b&gt;Quantity In-Transit&lt;/b&gt;" style="rounded=1;whiteSpace=wrap;html=1;" vertex="1" parent="1">
          <mxGeometry x="880" y="1440" width="180" height="100" as="geometry" />
        </mxCell>
        <mxCell id="Iu-jhI92YKq9Ds77I20t-87" value="&lt;b&gt;Total Delivered&lt;/b&gt;" style="rounded=1;whiteSpace=wrap;html=1;" vertex="1" parent="1">
          <mxGeometry x="1100" y="1440" width="180" height="100" as="geometry" />
        </mxCell>
        <mxCell id="Iu-jhI92YKq9Ds77I20t-90" value="&lt;h1&gt;Dashboard&lt;/h1&gt;" style="text;html=1;strokeColor=none;fillColor=lime;align=center;verticalAlign=middle;whiteSpace=wrap;rounded=0;" vertex="1" parent="1">
          <mxGeometry x="467.5" y="1470" width="145" height="40" as="geometry" />
        </mxCell>
        <mxCell id="Iu-jhI92YKq9Ds77I20t-91" value="&lt;h1&gt;Manage&lt;/h1&gt;" style="text;html=1;strokeColor=none;fillColor=white;align=center;verticalAlign=middle;whiteSpace=wrap;rounded=0;" vertex="1" parent="1">
          <mxGeometry x="467.5" y="1570" width="145" height="40" as="geometry" />
        </mxCell>
        <mxCell id="Iu-jhI92YKq9Ds77I20t-92" value="&lt;h1&gt;Profile&lt;/h1&gt;" style="text;html=1;strokeColor=none;fillColor=white;align=center;verticalAlign=middle;whiteSpace=wrap;rounded=0;" vertex="1" parent="1">
          <mxGeometry x="467.5" y="1670" width="145" height="40" as="geometry" />
        </mxCell>
        <mxCell id="Iu-jhI92YKq9Ds77I20t-93" value="&lt;h1&gt;Settings&lt;/h1&gt;" style="text;html=1;strokeColor=none;fillColor=white;align=center;verticalAlign=middle;whiteSpace=wrap;rounded=0;" vertex="1" parent="1">
          <mxGeometry x="467.5" y="1770" width="145" height="40" as="geometry" />
        </mxCell>
        <mxCell id="Iu-jhI92YKq9Ds77I20t-94" value="&lt;h1&gt;Help&lt;/h1&gt;" style="text;html=1;strokeColor=none;fillColor=white;align=center;verticalAlign=middle;whiteSpace=wrap;rounded=0;" vertex="1" parent="1">
          <mxGeometry x="467.5" y="1874" width="145" height="40" as="geometry" />
        </mxCell>
        <mxCell id="Iu-jhI92YKq9Ds77I20t-102" value="1" style="shape=ext;double=1;rounded=1;whiteSpace=wrap;html=1;" vertex="1" parent="1">
          <mxGeometry x="740" y="1505" width="40" height="30" as="geometry" />
        </mxCell>
        <mxCell id="Iu-jhI92YKq9Ds77I20t-103" value="0" style="shape=ext;double=1;rounded=1;whiteSpace=wrap;html=1;" vertex="1" parent="1">
          <mxGeometry x="950" y="1505" width="40" height="30" as="geometry" />
        </mxCell>
        <mxCell id="Iu-jhI92YKq9Ds77I20t-104" value="1" style="shape=ext;double=1;rounded=1;whiteSpace=wrap;html=1;" vertex="1" parent="1">
          <mxGeometry x="1170" y="1505" width="40" height="30" as="geometry" />
        </mxCell>
        <mxCell id="Iu-jhI92YKq9Ds77I20t-106" value="" style="verticalLabelPosition=bottom;verticalAlign=top;html=1;shape=mxgraph.basic.patternFillRect;fillStyle=diagGrid;step=5;fillStrokeWidth=0.2;fillStrokeColor=#dddddd;" vertex="1" parent="1">
          <mxGeometry x="450" y="2130" width="860" height="550" as="geometry" />
        </mxCell>
        <mxCell id="Iu-jhI92YKq9Ds77I20t-105" value="" style="verticalLabelPosition=bottom;verticalAlign=top;html=1;shape=mxgraph.basic.patternFillRect;fillStyle=diagGrid;step=5;fillStrokeWidth=0.2;fillStrokeColor=#dddddd;movable=1;resizable=1;rotatable=1;deletable=1;editable=1;locked=0;connectable=1;fillColor=#333333;" vertex="1" parent="1">
          <mxGeometry x="450" y="2130" width="180" height="550" as="geometry" />
        </mxCell>
        <mxCell id="Iu-jhI92YKq9Ds77I20t-107" value="&lt;h1&gt;Dashboard&lt;/h1&gt;" style="text;html=1;strokeColor=none;fillColor=white;align=center;verticalAlign=middle;whiteSpace=wrap;rounded=0;" vertex="1" parent="1">
          <mxGeometry x="467.5" y="2183" width="145" height="40" as="geometry" />
        </mxCell>
        <mxCell id="Iu-jhI92YKq9Ds77I20t-108" value="&lt;h1&gt;Manage&lt;/h1&gt;" style="text;html=1;strokeColor=none;fillColor=lime;align=center;verticalAlign=middle;whiteSpace=wrap;rounded=0;" vertex="1" parent="1">
          <mxGeometry x="467.5" y="2283" width="145" height="40" as="geometry" />
        </mxCell>
        <mxCell id="Iu-jhI92YKq9Ds77I20t-109" value="&lt;h1&gt;Profile&lt;/h1&gt;" style="text;html=1;strokeColor=none;fillColor=white;align=center;verticalAlign=middle;whiteSpace=wrap;rounded=0;" vertex="1" parent="1">
          <mxGeometry x="467.5" y="2383" width="145" height="40" as="geometry" />
        </mxCell>
        <mxCell id="Iu-jhI92YKq9Ds77I20t-110" value="&lt;h1&gt;Settings&lt;/h1&gt;" style="text;html=1;strokeColor=none;fillColor=white;align=center;verticalAlign=middle;whiteSpace=wrap;rounded=0;" vertex="1" parent="1">
          <mxGeometry x="467.5" y="2483" width="145" height="40" as="geometry" />
        </mxCell>
        <mxCell id="Iu-jhI92YKq9Ds77I20t-111" value="&lt;h1&gt;Help&lt;/h1&gt;" style="text;html=1;strokeColor=none;fillColor=white;align=center;verticalAlign=middle;whiteSpace=wrap;rounded=0;" vertex="1" parent="1">
          <mxGeometry x="467.5" y="2587" width="145" height="40" as="geometry" />
        </mxCell>
        <mxCell id="Iu-jhI92YKq9Ds77I20t-112" value="" style="rounded=1;whiteSpace=wrap;html=1;" vertex="1" parent="1">
          <mxGeometry x="700" y="2210" width="220" height="40" as="geometry" />
        </mxCell>
        <mxCell id="Iu-jhI92YKq9Ds77I20t-113" value="&lt;h1&gt;Item ID:&lt;/h1&gt;" style="text;html=1;strokeColor=none;fillColor=white;align=center;verticalAlign=middle;whiteSpace=wrap;rounded=0;" vertex="1" parent="1">
          <mxGeometry x="680" y="2160" width="145" height="40" as="geometry" />
        </mxCell>
        <mxCell id="Iu-jhI92YKq9Ds77I20t-114" value="" style="rounded=1;whiteSpace=wrap;html=1;" vertex="1" parent="1">
          <mxGeometry x="700" y="2323" width="200" height="40" as="geometry" />
        </mxCell>
        <mxCell id="Iu-jhI92YKq9Ds77I20t-115" value="&lt;h1&gt;Customer:&lt;/h1&gt;" style="text;html=1;strokeColor=none;fillColor=white;align=center;verticalAlign=middle;whiteSpace=wrap;rounded=0;" vertex="1" parent="1">
          <mxGeometry x="687.5" y="2280" width="145" height="40" as="geometry" />
        </mxCell>
        <mxCell id="Iu-jhI92YKq9Ds77I20t-117" value="" style="rounded=1;whiteSpace=wrap;html=1;" vertex="1" parent="1">
          <mxGeometry x="920" y="2323" width="280" height="40" as="geometry" />
        </mxCell>
        <mxCell id="Iu-jhI92YKq9Ds77I20t-118" value="&lt;h1&gt;Address:&lt;/h1&gt;" style="text;html=1;strokeColor=none;fillColor=white;align=center;verticalAlign=middle;whiteSpace=wrap;rounded=0;" vertex="1" parent="1">
          <mxGeometry x="912.5" y="2283" width="145" height="40" as="geometry" />
        </mxCell>
        <mxCell id="Iu-jhI92YKq9Ds77I20t-119" value="" style="ellipse;shape=doubleEllipse;whiteSpace=wrap;html=1;aspect=fixed;strokeColor=#000000;" vertex="1" parent="1">
          <mxGeometry x="980" y="2388" width="43" height="43" as="geometry" />
        </mxCell>
        <mxCell id="Iu-jhI92YKq9Ds77I20t-120" value="" style="ellipse;shape=doubleEllipse;whiteSpace=wrap;html=1;aspect=fixed;strokeColor=#000000;" vertex="1" parent="1">
          <mxGeometry x="980" y="2448" width="43" height="43" as="geometry" />
        </mxCell>
        <mxCell id="Iu-jhI92YKq9Ds77I20t-121" value="" style="ellipse;shape=doubleEllipse;whiteSpace=wrap;html=1;aspect=fixed;strokeColor=#000000;" vertex="1" parent="1">
          <mxGeometry x="980" y="2508" width="43" height="43" as="geometry" />
        </mxCell>
        <mxCell id="Iu-jhI92YKq9Ds77I20t-123" value="&lt;h1&gt;Pending&lt;/h1&gt;" style="text;html=1;strokeColor=none;fillColor=none;align=center;verticalAlign=middle;whiteSpace=wrap;rounded=0;" vertex="1" parent="1">
          <mxGeometry x="1020" y="2389.5" width="145" height="40" as="geometry" />
        </mxCell>
        <mxCell id="Iu-jhI92YKq9Ds77I20t-124" value="&lt;h1&gt;Shipped&lt;/h1&gt;" style="text;html=1;strokeColor=none;fillColor=none;align=center;verticalAlign=middle;whiteSpace=wrap;rounded=0;" vertex="1" parent="1">
          <mxGeometry x="1020" y="2449.5" width="145" height="40" as="geometry" />
        </mxCell>
        <mxCell id="Iu-jhI92YKq9Ds77I20t-125" value="&lt;h1&gt;Returned&lt;/h1&gt;" style="text;html=1;strokeColor=none;fillColor=none;align=center;verticalAlign=middle;whiteSpace=wrap;rounded=0;" vertex="1" parent="1">
          <mxGeometry x="1020" y="2511" width="145" height="40" as="geometry" />
        </mxCell>
        <mxCell id="Iu-jhI92YKq9Ds77I20t-126" value="&lt;h1&gt;Order ID:&lt;/h1&gt;" style="text;html=1;strokeColor=none;fillColor=white;align=center;verticalAlign=middle;whiteSpace=wrap;rounded=0;" vertex="1" parent="1">
          <mxGeometry x="970" y="2160" width="145" height="40" as="geometry" />
        </mxCell>
        <mxCell id="Iu-jhI92YKq9Ds77I20t-127" value="" style="rounded=1;whiteSpace=wrap;html=1;" vertex="1" parent="1">
          <mxGeometry x="980" y="2210" width="220" height="40" as="geometry" />
        </mxCell>
        <mxCell id="Iu-jhI92YKq9Ds77I20t-129" value="" style="shape=ext;double=1;rounded=0;whiteSpace=wrap;html=1;" vertex="1" parent="1">
          <mxGeometry x="750" y="2431" width="80" height="80" as="geometry" />
        </mxCell>
        <mxCell id="Iu-jhI92YKq9Ds77I20t-130" value="" style="shape=cross;whiteSpace=wrap;html=1;size=0.21730747415565727;" vertex="1" parent="1">
          <mxGeometry x="872.5" y="2453" width="47.5" height="45" as="geometry" />
        </mxCell>
        <mxCell id="Iu-jhI92YKq9Ds77I20t-131" value="" style="shape=ext;double=1;rounded=0;whiteSpace=wrap;html=1;" vertex="1" parent="1">
          <mxGeometry x="670" y="2470.5" width="40" height="10" as="geometry" />
        </mxCell>
        <mxCell id="Iu-jhI92YKq9Ds77I20t-132" value="" style="rounded=1;whiteSpace=wrap;html=1;" vertex="1" parent="1">
          <mxGeometry x="980" y="2600" width="220" height="40" as="geometry" />
        </mxCell>
        <mxCell id="Iu-jhI92YKq9Ds77I20t-133" value="&lt;h1&gt;Create&lt;/h1&gt;" style="text;html=1;strokeColor=none;fillColor=white;align=center;verticalAlign=middle;whiteSpace=wrap;rounded=0;" vertex="1" parent="1">
          <mxGeometry x="1017.5" y="2600" width="145" height="40" as="geometry" />
        </mxCell>
        <mxCell id="Iu-jhI92YKq9Ds77I20t-134" value="" style="rounded=1;whiteSpace=wrap;html=1;" vertex="1" parent="1">
          <mxGeometry x="700" y="2600" width="220" height="40" as="geometry" />
        </mxCell>
        <mxCell id="Iu-jhI92YKq9Ds77I20t-137" value="&lt;h1&gt;Back&lt;/h1&gt;" style="text;html=1;strokeColor=none;fillColor=white;align=center;verticalAlign=middle;whiteSpace=wrap;rounded=0;" vertex="1" parent="1">
          <mxGeometry x="737.5" y="2600" width="145" height="40" as="geometry" />
        </mxCell>
        <mxCell id="Iu-jhI92YKq9Ds77I20t-138" value="&lt;h1&gt;&lt;font style=&quot;font-size: 48px;&quot;&gt;0&lt;/font&gt;&lt;/h1&gt;" style="text;html=1;strokeColor=none;fillColor=none;align=center;verticalAlign=middle;whiteSpace=wrap;rounded=0;" vertex="1" parent="1">
          <mxGeometry x="713.75" y="2440.25" width="152.5" height="61.5" as="geometry" />
        </mxCell>
        <mxCell id="Iu-jhI92YKq9Ds77I20t-139" value="" style="verticalLabelPosition=bottom;verticalAlign=top;html=1;shape=mxgraph.basic.patternFillRect;fillStyle=diagGrid;step=5;fillStrokeWidth=0.2;fillStrokeColor=#dddddd;" vertex="1" parent="1">
          <mxGeometry x="435" y="2880" width="860" height="550" as="geometry" />
        </mxCell>
        <mxCell id="Iu-jhI92YKq9Ds77I20t-140" value="" style="verticalLabelPosition=bottom;verticalAlign=top;html=1;shape=mxgraph.basic.patternFillRect;fillStyle=diagGrid;step=5;fillStrokeWidth=0.2;fillStrokeColor=#dddddd;movable=1;resizable=1;rotatable=1;deletable=1;editable=1;locked=0;connectable=1;fillColor=#333333;" vertex="1" parent="1">
          <mxGeometry x="435" y="2880" width="180" height="550" as="geometry" />
        </mxCell>
        <mxCell id="Iu-jhI92YKq9Ds77I20t-141" value="&lt;h1&gt;Dashboard&lt;/h1&gt;" style="text;html=1;strokeColor=none;fillColor=white;align=center;verticalAlign=middle;whiteSpace=wrap;rounded=0;" vertex="1" parent="1">
          <mxGeometry x="452.5" y="2933" width="145" height="40" as="geometry" />
        </mxCell>
        <mxCell id="Iu-jhI92YKq9Ds77I20t-142" value="&lt;h1&gt;Manage&lt;/h1&gt;" style="text;html=1;strokeColor=none;fillColor=white;align=center;verticalAlign=middle;whiteSpace=wrap;rounded=0;" vertex="1" parent="1">
          <mxGeometry x="452.5" y="3033" width="145" height="40" as="geometry" />
        </mxCell>
        <mxCell id="Iu-jhI92YKq9Ds77I20t-143" value="&lt;h1&gt;Profile&lt;/h1&gt;" style="text;html=1;strokeColor=none;fillColor=lime;align=center;verticalAlign=middle;whiteSpace=wrap;rounded=0;" vertex="1" parent="1">
          <mxGeometry x="452.5" y="3133" width="145" height="40" as="geometry" />
        </mxCell>
        <mxCell id="Iu-jhI92YKq9Ds77I20t-144" value="&lt;h1&gt;Settings&lt;/h1&gt;" style="text;html=1;strokeColor=none;fillColor=white;align=center;verticalAlign=middle;whiteSpace=wrap;rounded=0;" vertex="1" parent="1">
          <mxGeometry x="452.5" y="3233" width="145" height="40" as="geometry" />
        </mxCell>
        <mxCell id="Iu-jhI92YKq9Ds77I20t-145" value="&lt;h1&gt;Help&lt;/h1&gt;" style="text;html=1;strokeColor=none;fillColor=white;align=center;verticalAlign=middle;whiteSpace=wrap;rounded=0;" vertex="1" parent="1">
          <mxGeometry x="452.5" y="3337" width="145" height="40" as="geometry" />
        </mxCell>
        <mxCell id="Iu-jhI92YKq9Ds77I20t-146" value="" style="rounded=1;whiteSpace=wrap;html=1;" vertex="1" parent="1">
          <mxGeometry x="685" y="2960" width="220" height="40" as="geometry" />
        </mxCell>
        <mxCell id="Iu-jhI92YKq9Ds77I20t-147" value="&lt;h1&gt;Staff ID:&lt;/h1&gt;" style="text;html=1;strokeColor=none;fillColor=none;align=center;verticalAlign=middle;whiteSpace=wrap;rounded=0;" vertex="1" parent="1">
          <mxGeometry x="665" y="2910" width="145" height="40" as="geometry" />
        </mxCell>
        <mxCell id="Iu-jhI92YKq9Ds77I20t-148" value="" style="rounded=1;whiteSpace=wrap;html=1;" vertex="1" parent="1">
          <mxGeometry x="685" y="3073" width="200" height="40" as="geometry" />
        </mxCell>
        <mxCell id="Iu-jhI92YKq9Ds77I20t-149" value="&lt;h1&gt;Name:&lt;/h1&gt;" style="text;html=1;strokeColor=none;fillColor=none;align=center;verticalAlign=middle;whiteSpace=wrap;rounded=0;" vertex="1" parent="1">
          <mxGeometry x="655" y="3030" width="145" height="40" as="geometry" />
        </mxCell>
        <mxCell id="Iu-jhI92YKq9Ds77I20t-160" value="" style="shape=ext;double=1;rounded=0;whiteSpace=wrap;html=1;" vertex="1" parent="1">
          <mxGeometry x="1002.5" y="2920" width="247.5" height="270" as="geometry" />
        </mxCell>
        <mxCell id="Iu-jhI92YKq9Ds77I20t-165" value="" style="rounded=1;whiteSpace=wrap;html=1;" vertex="1" parent="1">
          <mxGeometry x="685" y="3350" width="220" height="40" as="geometry" />
        </mxCell>
        <mxCell id="Iu-jhI92YKq9Ds77I20t-166" value="&lt;h1&gt;Back&lt;/h1&gt;" style="text;html=1;strokeColor=none;fillColor=white;align=center;verticalAlign=middle;whiteSpace=wrap;rounded=0;" vertex="1" parent="1">
          <mxGeometry x="722.5" y="3350" width="145" height="40" as="geometry" />
        </mxCell>
        <mxCell id="Iu-jhI92YKq9Ds77I20t-168" value="" style="rounded=1;whiteSpace=wrap;html=1;" vertex="1" parent="1">
          <mxGeometry x="1002.5" y="3350" width="200" height="40" as="geometry" />
        </mxCell>
        <mxCell id="Iu-jhI92YKq9Ds77I20t-169" value="&lt;h1&gt;Update&lt;/h1&gt;" style="text;html=1;strokeColor=none;fillColor=white;align=center;verticalAlign=middle;whiteSpace=wrap;rounded=0;" vertex="1" parent="1">
          <mxGeometry x="1030" y="3350" width="145" height="40" as="geometry" />
        </mxCell>
        <mxCell id="Iu-jhI92YKq9Ds77I20t-170" value="&lt;h1&gt;Start Date:&lt;/h1&gt;" style="text;html=1;strokeColor=none;fillColor=none;align=center;verticalAlign=middle;whiteSpace=wrap;rounded=0;" vertex="1" parent="1">
          <mxGeometry x="1002.5" y="3210" width="145" height="40" as="geometry" />
        </mxCell>
        <mxCell id="Iu-jhI92YKq9Ds77I20t-171" value="" style="rounded=1;whiteSpace=wrap;html=1;" vertex="1" parent="1">
          <mxGeometry x="1020" y="3250" width="200" height="40" as="geometry" />
        </mxCell>
        <mxCell id="Iu-jhI92YKq9Ds77I20t-172" value="&lt;h1&gt;10/30/2024&lt;/h1&gt;" style="text;html=1;strokeColor=none;fillColor=none;align=center;verticalAlign=middle;whiteSpace=wrap;rounded=0;" vertex="1" parent="1">
          <mxGeometry x="1047.5" y="3250" width="145" height="40" as="geometry" />
        </mxCell>
        <mxCell id="Iu-jhI92YKq9Ds77I20t-173" value="" style="rounded=1;whiteSpace=wrap;html=1;" vertex="1" parent="1">
          <mxGeometry x="687.5" y="3220" width="200" height="40" as="geometry" />
        </mxCell>
        <mxCell id="Iu-jhI92YKq9Ds77I20t-174" value="" style="rounded=1;whiteSpace=wrap;html=1;arcSize=40;" vertex="1" parent="1">
          <mxGeometry x="682.5" y="3290" width="200" height="40" as="geometry" />
        </mxCell>
        <mxCell id="Iu-jhI92YKq9Ds77I20t-175" value="&lt;h1&gt;J.Swilling&lt;/h1&gt;" style="text;html=1;strokeColor=none;fillColor=none;align=center;verticalAlign=middle;whiteSpace=wrap;rounded=0;" vertex="1" parent="1">
          <mxGeometry x="712.5" y="3073" width="145" height="40" as="geometry" />
        </mxCell>
        <mxCell id="Iu-jhI92YKq9Ds77I20t-176" value="&lt;h1&gt;00124&lt;/h1&gt;" style="text;html=1;strokeColor=none;fillColor=none;align=center;verticalAlign=middle;whiteSpace=wrap;rounded=0;" vertex="1" parent="1">
          <mxGeometry x="715" y="2960" width="145" height="40" as="geometry" />
        </mxCell>
        <mxCell id="Iu-jhI92YKq9Ds77I20t-177" value="&lt;h2&gt;Change Password&lt;/h2&gt;" style="text;html=1;strokeColor=none;fillColor=none;align=center;verticalAlign=middle;whiteSpace=wrap;rounded=0;" vertex="1" parent="1">
          <mxGeometry x="694.38" y="3220" width="186.25" height="40" as="geometry" />
        </mxCell>
        <mxCell id="Iu-jhI92YKq9Ds77I20t-178" value="&lt;h1&gt;TERMINATE&lt;/h1&gt;" style="text;html=1;strokeColor=none;fillColor=none;align=center;verticalAlign=middle;whiteSpace=wrap;rounded=0;" vertex="1" parent="1">
          <mxGeometry x="713.75" y="3290" width="145" height="40" as="geometry" />
        </mxCell>
        <mxCell id="Iu-jhI92YKq9Ds77I20t-179" value="" style="shape=actor;whiteSpace=wrap;html=1;" vertex="1" parent="1">
          <mxGeometry x="1052.5" y="2983.5" width="135" height="143" as="geometry" />
        </mxCell>
        <mxCell id="Iu-jhI92YKq9Ds77I20t-182" value="" style="verticalLabelPosition=bottom;verticalAlign=top;html=1;shape=mxgraph.basic.patternFillRect;fillStyle=diagGrid;step=5;fillStrokeWidth=0.2;fillStrokeColor=#dddddd;" vertex="1" parent="1">
          <mxGeometry x="425" y="3640" width="860" height="550" as="geometry" />
        </mxCell>
        <mxCell id="Iu-jhI92YKq9Ds77I20t-183" value="" style="verticalLabelPosition=bottom;verticalAlign=top;html=1;shape=mxgraph.basic.patternFillRect;fillStyle=diagGrid;step=5;fillStrokeWidth=0.2;fillStrokeColor=#dddddd;movable=1;resizable=1;rotatable=1;deletable=1;editable=1;locked=0;connectable=1;fillColor=#333333;" vertex="1" parent="1">
          <mxGeometry x="425" y="3640" width="180" height="550" as="geometry" />
        </mxCell>
        <mxCell id="Iu-jhI92YKq9Ds77I20t-184" value="&lt;h1&gt;Dashboard&lt;/h1&gt;" style="text;html=1;strokeColor=none;fillColor=white;align=center;verticalAlign=middle;whiteSpace=wrap;rounded=0;" vertex="1" parent="1">
          <mxGeometry x="442.5" y="3693" width="145" height="40" as="geometry" />
        </mxCell>
        <mxCell id="Iu-jhI92YKq9Ds77I20t-185" value="&lt;h1&gt;Manage&lt;/h1&gt;" style="text;html=1;strokeColor=none;fillColor=white;align=center;verticalAlign=middle;whiteSpace=wrap;rounded=0;" vertex="1" parent="1">
          <mxGeometry x="442.5" y="3793" width="145" height="40" as="geometry" />
        </mxCell>
        <mxCell id="Iu-jhI92YKq9Ds77I20t-186" value="&lt;h1&gt;Profile&lt;/h1&gt;" style="text;html=1;strokeColor=none;fillColor=white;align=center;verticalAlign=middle;whiteSpace=wrap;rounded=0;" vertex="1" parent="1">
          <mxGeometry x="442.5" y="3893" width="145" height="40" as="geometry" />
        </mxCell>
        <mxCell id="Iu-jhI92YKq9Ds77I20t-187" value="&lt;h1&gt;Settings&lt;/h1&gt;" style="text;html=1;strokeColor=none;fillColor=lime;align=center;verticalAlign=middle;whiteSpace=wrap;rounded=0;" vertex="1" parent="1">
          <mxGeometry x="442.5" y="3993" width="145" height="40" as="geometry" />
        </mxCell>
        <mxCell id="Iu-jhI92YKq9Ds77I20t-188" value="&lt;h1&gt;Help&lt;/h1&gt;" style="text;html=1;strokeColor=none;fillColor=white;align=center;verticalAlign=middle;whiteSpace=wrap;rounded=0;" vertex="1" parent="1">
          <mxGeometry x="442.5" y="4097" width="145" height="40" as="geometry" />
        </mxCell>
        <mxCell id="Iu-jhI92YKq9Ds77I20t-194" value="" style="rounded=1;whiteSpace=wrap;html=1;" vertex="1" parent="1">
          <mxGeometry x="675" y="4110" width="220" height="40" as="geometry" />
        </mxCell>
        <mxCell id="Iu-jhI92YKq9Ds77I20t-195" value="&lt;h1&gt;Back&lt;/h1&gt;" style="text;html=1;strokeColor=none;fillColor=white;align=center;verticalAlign=middle;whiteSpace=wrap;rounded=0;" vertex="1" parent="1">
          <mxGeometry x="712.5" y="4110" width="145" height="40" as="geometry" />
        </mxCell>
        <mxCell id="Iu-jhI92YKq9Ds77I20t-196" value="" style="rounded=1;whiteSpace=wrap;html=1;" vertex="1" parent="1">
          <mxGeometry x="992.5" y="4110" width="200" height="40" as="geometry" />
        </mxCell>
        <mxCell id="Iu-jhI92YKq9Ds77I20t-197" value="&lt;h1&gt;Save&lt;/h1&gt;" style="text;html=1;strokeColor=none;fillColor=white;align=center;verticalAlign=middle;whiteSpace=wrap;rounded=0;" vertex="1" parent="1">
          <mxGeometry x="1020" y="4110" width="145" height="40" as="geometry" />
        </mxCell>
        <mxCell id="Iu-jhI92YKq9Ds77I20t-208" value="" style="verticalLabelPosition=bottom;verticalAlign=top;html=1;shape=mxgraph.basic.patternFillRect;fillStyle=diagGrid;step=5;fillStrokeWidth=0.2;fillStrokeColor=#dddddd;" vertex="1" parent="1">
          <mxGeometry x="435" y="4390" width="860" height="550" as="geometry" />
        </mxCell>
        <mxCell id="Iu-jhI92YKq9Ds77I20t-209" value="" style="verticalLabelPosition=bottom;verticalAlign=top;html=1;shape=mxgraph.basic.patternFillRect;fillStyle=diagGrid;step=5;fillStrokeWidth=0.2;fillStrokeColor=#dddddd;movable=1;resizable=1;rotatable=1;deletable=1;editable=1;locked=0;connectable=1;fillColor=#333333;" vertex="1" parent="1">
          <mxGeometry x="435" y="4390" width="180" height="550" as="geometry" />
        </mxCell>
        <mxCell id="Iu-jhI92YKq9Ds77I20t-210" value="&lt;h1&gt;Dashboard&lt;/h1&gt;" style="text;html=1;strokeColor=none;fillColor=white;align=center;verticalAlign=middle;whiteSpace=wrap;rounded=0;" vertex="1" parent="1">
          <mxGeometry x="452.5" y="4443" width="145" height="40" as="geometry" />
        </mxCell>
        <mxCell id="Iu-jhI92YKq9Ds77I20t-211" value="&lt;h1&gt;Manage&lt;/h1&gt;" style="text;html=1;strokeColor=none;fillColor=white;align=center;verticalAlign=middle;whiteSpace=wrap;rounded=0;" vertex="1" parent="1">
          <mxGeometry x="452.5" y="4543" width="145" height="40" as="geometry" />
        </mxCell>
        <mxCell id="Iu-jhI92YKq9Ds77I20t-212" value="&lt;h1&gt;Profile&lt;/h1&gt;" style="text;html=1;strokeColor=none;fillColor=white;align=center;verticalAlign=middle;whiteSpace=wrap;rounded=0;" vertex="1" parent="1">
          <mxGeometry x="452.5" y="4643" width="145" height="40" as="geometry" />
        </mxCell>
        <mxCell id="Iu-jhI92YKq9Ds77I20t-213" value="&lt;h1&gt;Settings&lt;/h1&gt;" style="text;html=1;strokeColor=none;fillColor=white;align=center;verticalAlign=middle;whiteSpace=wrap;rounded=0;" vertex="1" parent="1">
          <mxGeometry x="452.5" y="4743" width="145" height="40" as="geometry" />
        </mxCell>
        <mxCell id="Iu-jhI92YKq9Ds77I20t-214" value="&lt;h1&gt;Help&lt;/h1&gt;" style="text;html=1;strokeColor=none;fillColor=lime;align=center;verticalAlign=middle;whiteSpace=wrap;rounded=0;" vertex="1" parent="1">
          <mxGeometry x="452.5" y="4847" width="145" height="40" as="geometry" />
        </mxCell>
        <mxCell id="Iu-jhI92YKq9Ds77I20t-234" value="" style="ellipse;shape=doubleEllipse;whiteSpace=wrap;html=1;aspect=fixed;strokeColor=#000000;" vertex="1" parent="1">
          <mxGeometry x="845" y="3710" width="43" height="43" as="geometry" />
        </mxCell>
        <mxCell id="Iu-jhI92YKq9Ds77I20t-235" value="" style="ellipse;shape=doubleEllipse;whiteSpace=wrap;html=1;aspect=fixed;strokeColor=#000000;" vertex="1" parent="1">
          <mxGeometry x="845" y="3770" width="43" height="43" as="geometry" />
        </mxCell>
        <mxCell id="Iu-jhI92YKq9Ds77I20t-236" value="" style="ellipse;shape=doubleEllipse;whiteSpace=wrap;html=1;aspect=fixed;strokeColor=#000000;" vertex="1" parent="1">
          <mxGeometry x="845" y="3830" width="43" height="43" as="geometry" />
        </mxCell>
        <mxCell id="Iu-jhI92YKq9Ds77I20t-237" value="&lt;h1&gt;Dark Mode&lt;/h1&gt;" style="text;html=1;strokeColor=none;fillColor=none;align=center;verticalAlign=middle;whiteSpace=wrap;rounded=0;" vertex="1" parent="1">
          <mxGeometry x="885" y="3711.5" width="145" height="40" as="geometry" />
        </mxCell>
        <mxCell id="Iu-jhI92YKq9Ds77I20t-238" value="&lt;h1&gt;Notifications&lt;/h1&gt;" style="text;html=1;strokeColor=none;fillColor=none;align=center;verticalAlign=middle;whiteSpace=wrap;rounded=0;" vertex="1" parent="1">
          <mxGeometry x="895" y="3771.5" width="145" height="40" as="geometry" />
        </mxCell>
        <mxCell id="Iu-jhI92YKq9Ds77I20t-239" value="&lt;h1&gt;Fullscreen&lt;/h1&gt;" style="text;html=1;strokeColor=none;fillColor=none;align=center;verticalAlign=middle;whiteSpace=wrap;rounded=0;" vertex="1" parent="1">
          <mxGeometry x="885" y="3832" width="145" height="41" as="geometry" />
        </mxCell>
        <mxCell id="Iu-jhI92YKq9Ds77I20t-241" value="" style="swimlane;startSize=0;" vertex="1" parent="1">
          <mxGeometry x="640" y="4420" width="620" height="500" as="geometry" />
        </mxCell>
        <mxCell id="Iu-jhI92YKq9Ds77I20t-242" value="" style="rounded=1;whiteSpace=wrap;html=1;strokeWidth=2;fillWeight=4;hachureGap=8;hachureAngle=45;fillColor=#1ba1e2;sketch=1;" vertex="1" parent="Iu-jhI92YKq9Ds77I20t-241">
          <mxGeometry x="40" y="40" width="520" height="160" as="geometry" />
        </mxCell>
        <mxCell id="Iu-jhI92YKq9Ds77I20t-243" value="" style="rounded=1;whiteSpace=wrap;html=1;strokeWidth=2;fillWeight=4;hachureGap=8;hachureAngle=45;fillColor=#1ba1e2;sketch=1;" vertex="1" parent="Iu-jhI92YKq9Ds77I20t-241">
          <mxGeometry x="40" y="410" width="520" height="70" as="geometry" />
        </mxCell>
        <mxCell id="Iu-jhI92YKq9Ds77I20t-244" value="" style="rounded=1;whiteSpace=wrap;html=1;" vertex="1" parent="Iu-jhI92YKq9Ds77I20t-241">
          <mxGeometry x="155" y="80" width="290" height="70" as="geometry" />
        </mxCell>
        <mxCell id="Iu-jhI92YKq9Ds77I20t-245" value="&lt;h1&gt;USER MANUAL&lt;/h1&gt;" style="text;html=1;strokeColor=none;fillColor=white;align=center;verticalAlign=middle;whiteSpace=wrap;rounded=0;" vertex="1" parent="Iu-jhI92YKq9Ds77I20t-241">
          <mxGeometry x="227.5" y="95" width="145" height="40" as="geometry" />
        </mxCell>
        <mxCell id="Iu-jhI92YKq9Ds77I20t-247" value="" style="line;strokeWidth=4;html=1;perimeter=backbonePerimeter;points=[];outlineConnect=0;" vertex="1" parent="Iu-jhI92YKq9Ds77I20t-241">
          <mxGeometry x="372.5" y="213.5" width="160" height="10" as="geometry" />
        </mxCell>
        <mxCell id="Iu-jhI92YKq9Ds77I20t-248" value="" style="line;strokeWidth=4;html=1;perimeter=backbonePerimeter;points=[];outlineConnect=0;" vertex="1" parent="Iu-jhI92YKq9Ds77I20t-241">
          <mxGeometry x="372.5" y="223.5" width="160" height="10" as="geometry" />
        </mxCell>
        <mxCell id="Iu-jhI92YKq9Ds77I20t-249" value="" style="line;strokeWidth=4;html=1;perimeter=backbonePerimeter;points=[];outlineConnect=0;" vertex="1" parent="Iu-jhI92YKq9Ds77I20t-241">
          <mxGeometry x="372.5" y="235.5" width="160" height="10" as="geometry" />
        </mxCell>
        <mxCell id="Iu-jhI92YKq9Ds77I20t-250" value="" style="line;strokeWidth=4;html=1;perimeter=backbonePerimeter;points=[];outlineConnect=0;" vertex="1" parent="Iu-jhI92YKq9Ds77I20t-241">
          <mxGeometry x="372.5" y="245.5" width="160" height="10" as="geometry" />
        </mxCell>
        <mxCell id="Iu-jhI92YKq9Ds77I20t-251" value="" style="line;strokeWidth=4;html=1;perimeter=backbonePerimeter;points=[];outlineConnect=0;" vertex="1" parent="Iu-jhI92YKq9Ds77I20t-241">
          <mxGeometry x="372.5" y="260.5" width="160" height="10" as="geometry" />
        </mxCell>
        <mxCell id="Iu-jhI92YKq9Ds77I20t-252" value="" style="line;strokeWidth=4;html=1;perimeter=backbonePerimeter;points=[];outlineConnect=0;" vertex="1" parent="Iu-jhI92YKq9Ds77I20t-241">
          <mxGeometry x="372.5" y="270.5" width="160" height="10" as="geometry" />
        </mxCell>
        <mxCell id="Iu-jhI92YKq9Ds77I20t-253" value="" style="line;strokeWidth=4;html=1;perimeter=backbonePerimeter;points=[];outlineConnect=0;" vertex="1" parent="Iu-jhI92YKq9Ds77I20t-241">
          <mxGeometry x="372.5" y="282.5" width="160" height="10" as="geometry" />
        </mxCell>
        <mxCell id="Iu-jhI92YKq9Ds77I20t-254" value="" style="line;strokeWidth=4;html=1;perimeter=backbonePerimeter;points=[];outlineConnect=0;" vertex="1" parent="Iu-jhI92YKq9Ds77I20t-241">
          <mxGeometry x="372.5" y="292.5" width="160" height="10" as="geometry" />
        </mxCell>
        <mxCell id="Iu-jhI92YKq9Ds77I20t-255" value="" style="line;strokeWidth=4;html=1;perimeter=backbonePerimeter;points=[];outlineConnect=0;" vertex="1" parent="Iu-jhI92YKq9Ds77I20t-241">
          <mxGeometry x="372.5" y="311.5" width="160" height="10" as="geometry" />
        </mxCell>
        <mxCell id="Iu-jhI92YKq9Ds77I20t-256" value="" style="line;strokeWidth=4;html=1;perimeter=backbonePerimeter;points=[];outlineConnect=0;" vertex="1" parent="Iu-jhI92YKq9Ds77I20t-241">
          <mxGeometry x="372.5" y="321.5" width="160" height="10" as="geometry" />
        </mxCell>
        <mxCell id="Iu-jhI92YKq9Ds77I20t-257" value="" style="line;strokeWidth=4;html=1;perimeter=backbonePerimeter;points=[];outlineConnect=0;" vertex="1" parent="Iu-jhI92YKq9Ds77I20t-241">
          <mxGeometry x="372.5" y="333.5" width="160" height="10" as="geometry" />
        </mxCell>
        <mxCell id="Iu-jhI92YKq9Ds77I20t-258" value="" style="line;strokeWidth=4;html=1;perimeter=backbonePerimeter;points=[];outlineConnect=0;" vertex="1" parent="Iu-jhI92YKq9Ds77I20t-241">
          <mxGeometry x="372.5" y="343.5" width="160" height="10" as="geometry" />
        </mxCell>
        <mxCell id="Iu-jhI92YKq9Ds77I20t-259" value="" style="line;strokeWidth=4;html=1;perimeter=backbonePerimeter;points=[];outlineConnect=0;" vertex="1" parent="Iu-jhI92YKq9Ds77I20t-241">
          <mxGeometry x="372.5" y="358.5" width="160" height="10" as="geometry" />
        </mxCell>
        <mxCell id="Iu-jhI92YKq9Ds77I20t-260" value="" style="line;strokeWidth=4;html=1;perimeter=backbonePerimeter;points=[];outlineConnect=0;" vertex="1" parent="Iu-jhI92YKq9Ds77I20t-241">
          <mxGeometry x="372.5" y="368.5" width="160" height="10" as="geometry" />
        </mxCell>
        <mxCell id="Iu-jhI92YKq9Ds77I20t-261" value="" style="line;strokeWidth=4;html=1;perimeter=backbonePerimeter;points=[];outlineConnect=0;" vertex="1" parent="Iu-jhI92YKq9Ds77I20t-241">
          <mxGeometry x="372.5" y="380.5" width="160" height="10" as="geometry" />
        </mxCell>
        <mxCell id="Iu-jhI92YKq9Ds77I20t-262" value="" style="line;strokeWidth=4;html=1;perimeter=backbonePerimeter;points=[];outlineConnect=0;" vertex="1" parent="Iu-jhI92YKq9Ds77I20t-241">
          <mxGeometry x="372.5" y="390.5" width="160" height="10" as="geometry" />
        </mxCell>
        <mxCell id="Iu-jhI92YKq9Ds77I20t-263" value="" style="line;strokeWidth=4;html=1;perimeter=backbonePerimeter;points=[];outlineConnect=0;" vertex="1" parent="Iu-jhI92YKq9Ds77I20t-241">
          <mxGeometry x="110" y="223" width="160" height="10" as="geometry" />
        </mxCell>
        <mxCell id="Iu-jhI92YKq9Ds77I20t-264" value="" style="line;strokeWidth=4;html=1;perimeter=backbonePerimeter;points=[];outlineConnect=0;" vertex="1" parent="Iu-jhI92YKq9Ds77I20t-241">
          <mxGeometry x="110" y="233" width="160" height="10" as="geometry" />
        </mxCell>
        <mxCell id="Iu-jhI92YKq9Ds77I20t-265" value="" style="line;strokeWidth=4;html=1;perimeter=backbonePerimeter;points=[];outlineConnect=0;" vertex="1" parent="Iu-jhI92YKq9Ds77I20t-241">
          <mxGeometry x="110" y="245" width="160" height="10" as="geometry" />
        </mxCell>
        <mxCell id="Iu-jhI92YKq9Ds77I20t-266" value="" style="line;strokeWidth=4;html=1;perimeter=backbonePerimeter;points=[];outlineConnect=0;" vertex="1" parent="Iu-jhI92YKq9Ds77I20t-241">
          <mxGeometry x="110" y="255" width="160" height="10" as="geometry" />
        </mxCell>
        <mxCell id="Iu-jhI92YKq9Ds77I20t-267" value="" style="line;strokeWidth=4;html=1;perimeter=backbonePerimeter;points=[];outlineConnect=0;" vertex="1" parent="Iu-jhI92YKq9Ds77I20t-241">
          <mxGeometry x="110" y="270" width="160" height="10" as="geometry" />
        </mxCell>
        <mxCell id="Iu-jhI92YKq9Ds77I20t-268" value="" style="line;strokeWidth=4;html=1;perimeter=backbonePerimeter;points=[];outlineConnect=0;" vertex="1" parent="Iu-jhI92YKq9Ds77I20t-241">
          <mxGeometry x="110" y="280" width="160" height="10" as="geometry" />
        </mxCell>
        <mxCell id="Iu-jhI92YKq9Ds77I20t-269" value="" style="line;strokeWidth=4;html=1;perimeter=backbonePerimeter;points=[];outlineConnect=0;" vertex="1" parent="Iu-jhI92YKq9Ds77I20t-241">
          <mxGeometry x="110" y="292" width="160" height="10" as="geometry" />
        </mxCell>
        <mxCell id="Iu-jhI92YKq9Ds77I20t-270" value="" style="line;strokeWidth=4;html=1;perimeter=backbonePerimeter;points=[];outlineConnect=0;" vertex="1" parent="Iu-jhI92YKq9Ds77I20t-241">
          <mxGeometry x="110" y="302" width="160" height="10" as="geometry" />
        </mxCell>
        <mxCell id="Iu-jhI92YKq9Ds77I20t-271" value="" style="line;strokeWidth=4;html=1;perimeter=backbonePerimeter;points=[];outlineConnect=0;" vertex="1" parent="Iu-jhI92YKq9Ds77I20t-241">
          <mxGeometry x="110" y="321" width="160" height="10" as="geometry" />
        </mxCell>
        <mxCell id="Iu-jhI92YKq9Ds77I20t-272" value="" style="line;strokeWidth=4;html=1;perimeter=backbonePerimeter;points=[];outlineConnect=0;" vertex="1" parent="Iu-jhI92YKq9Ds77I20t-241">
          <mxGeometry x="110" y="331" width="160" height="10" as="geometry" />
        </mxCell>
        <mxCell id="Iu-jhI92YKq9Ds77I20t-273" value="" style="line;strokeWidth=4;html=1;perimeter=backbonePerimeter;points=[];outlineConnect=0;" vertex="1" parent="Iu-jhI92YKq9Ds77I20t-241">
          <mxGeometry x="110" y="343" width="160" height="10" as="geometry" />
        </mxCell>
        <mxCell id="Iu-jhI92YKq9Ds77I20t-274" value="" style="line;strokeWidth=4;html=1;perimeter=backbonePerimeter;points=[];outlineConnect=0;" vertex="1" parent="Iu-jhI92YKq9Ds77I20t-241">
          <mxGeometry x="110" y="353" width="160" height="10" as="geometry" />
        </mxCell>
        <mxCell id="Iu-jhI92YKq9Ds77I20t-275" value="" style="line;strokeWidth=4;html=1;perimeter=backbonePerimeter;points=[];outlineConnect=0;" vertex="1" parent="Iu-jhI92YKq9Ds77I20t-241">
          <mxGeometry x="110" y="368" width="160" height="10" as="geometry" />
        </mxCell>
        <mxCell id="Iu-jhI92YKq9Ds77I20t-276" value="" style="line;strokeWidth=4;html=1;perimeter=backbonePerimeter;points=[];outlineConnect=0;" vertex="1" parent="Iu-jhI92YKq9Ds77I20t-241">
          <mxGeometry x="110" y="378" width="160" height="10" as="geometry" />
        </mxCell>
        <mxCell id="Iu-jhI92YKq9Ds77I20t-277" value="" style="line;strokeWidth=4;html=1;perimeter=backbonePerimeter;points=[];outlineConnect=0;" vertex="1" parent="Iu-jhI92YKq9Ds77I20t-241">
          <mxGeometry x="110" y="390" width="160" height="10" as="geometry" />
        </mxCell>
      </root>
    </mxGraphModel>
  </diagram>
</mxfile>
